<svg width="96" height="96" viewBox="0 0 24 24" fill="none" aria-labelledby="coffee1" role="img">
  <title id="coffee1">Coffee mug with saucer and steam</title>
  <g stroke="currentColor" stroke-width="1.6" stroke-linecap="round" stroke-linejoin="round">
    <path d="M4 9.5v4.3a4.2 4.2 0 0 0 4.2 4.2h3.6A4.2 4.2 0 0 0 16 13.8V9.5H4z"/>
    <path d="M16 10.5h1.4a2.6 2.6 0 1 1 0 5.2H16"/>
    <path d="M3.5 19.8h13a3 3 0 0 1-2.8 1.7H6.3A3 3 0 0 1 3.5 19.8z"/>
    <path d="M9 4.2c-.5.6-.5 1.5 0 2.1M12 4.2c-.5.6-.5 1.5 0 2.1M15 4.2c-.5.6-.5 1.5 0 2.1"/>
  </g>
</svg>